<svg xmlns="http://www.w3.org/2000/svg" width="152" height="69" viewBox="0 0 152 69" fill="none"><path d="M120.457 49.225C120.457 49.436 120.423 49.6344 120.355 49.8196C120.287 50.0052 120.184 50.1645 120.046 50.2981C119.908 50.4317 119.734 50.5372 119.523 50.6146C119.313 50.692 119.063 50.7307 118.773 50.7307C118.561 50.7307 118.364 50.7106 118.183 50.6707C118.002 50.6309 117.835 50.577 117.684 50.5087C117.532 50.4408 117.395 50.3634 117.273 50.2765C117.151 50.1896 117.044 50.1019 116.954 50.0128L117.49 49.4075C117.676 49.5718 117.871 49.6986 118.074 49.7874C118.278 49.8765 118.509 49.9209 118.767 49.9209C118.93 49.9209 119.065 49.9023 119.174 49.8648C119.283 49.8272 119.37 49.7794 119.435 49.7206C119.501 49.6621 119.546 49.5938 119.571 49.5164C119.596 49.439 119.609 49.3627 119.609 49.2876C119.609 49.1423 119.571 49.0227 119.497 48.9286C119.422 48.8349 119.322 48.7564 119.198 48.693C119.073 48.6296 118.932 48.5757 118.774 48.531C118.615 48.4866 118.453 48.4406 118.288 48.3936C118.123 48.3469 117.961 48.2915 117.803 48.2281C117.644 48.1648 117.503 48.0839 117.379 47.9853C117.254 47.8866 117.154 47.7637 117.08 47.6157C117.005 47.4681 116.968 47.2837 116.968 47.0632C116.968 46.8568 117.004 46.6666 117.077 46.4932C117.149 46.3198 117.254 46.1707 117.392 46.0462C117.53 45.9221 117.702 45.8246 117.908 45.754C118.114 45.6838 118.35 45.6485 118.617 45.6485C118.984 45.6485 119.315 45.7108 119.612 45.8349C119.908 45.9593 120.165 46.1176 120.382 46.31L119.887 46.9505C119.669 46.7721 119.458 46.6454 119.252 46.5706C119.046 46.4955 118.837 46.4579 118.624 46.4579C118.339 46.4579 118.133 46.5095 118.006 46.6128C117.88 46.716 117.816 46.8427 117.816 46.993C117.816 47.1152 117.854 47.2157 117.928 47.2954C118.003 47.3751 118.103 47.4423 118.227 47.4962C118.352 47.55 118.493 47.5971 118.651 47.6369C118.81 47.6768 118.972 47.7216 119.137 47.7705C119.302 47.8198 119.464 47.8787 119.622 47.9466C119.781 48.0145 119.922 48.1037 120.046 48.2141C120.171 48.3245 120.27 48.4615 120.345 48.6258C120.42 48.7901 120.457 48.9893 120.457 49.2239L120.457 49.225Z" fill="#231F20"></path><path d="M121.224 45.7273H122.072V50.6535H121.224V45.7273Z" fill="#231F20"></path><path d="M123.79 47.2896V50.6535H122.942V45.7273H123.858L125.671 49.0913V45.7273H126.519V50.6535H125.603L123.79 47.2896Z" fill="#231F20"></path><path d="M127.32 48.1904C127.32 47.8056 127.375 47.4562 127.486 47.142C127.597 46.8278 127.757 46.5591 127.965 46.336C128.173 46.1132 128.424 45.941 128.718 45.8188C129.013 45.697 129.345 45.6359 129.716 45.6359C130.142 45.6359 130.514 45.7144 130.833 45.8715C131.152 46.0286 131.42 46.2479 131.638 46.5295L130.945 47.0221C130.8 46.8391 130.627 46.6972 130.426 46.5963C130.224 46.4954 129.988 46.4449 129.716 46.4449C129.472 46.4449 129.253 46.4859 129.061 46.5682C128.868 46.6502 128.707 46.7663 128.576 46.9166C128.444 47.0668 128.343 47.2497 128.274 47.4656C128.203 47.6816 128.168 47.9229 128.168 48.1904C128.168 48.4579 128.204 48.6997 128.274 48.9152C128.343 49.1311 128.444 49.314 128.576 49.4643C128.707 49.6145 128.868 49.7307 129.061 49.8126C129.253 49.895 129.472 49.936 129.716 49.936C129.988 49.936 130.224 49.8855 130.426 49.7845C130.627 49.6836 130.8 49.5417 130.945 49.3588L131.638 49.8513C131.42 50.1329 131.152 50.3522 130.833 50.5093C130.514 50.6664 130.142 50.745 129.716 50.745C129.345 50.745 129.012 50.6839 128.718 50.5621C128.424 50.4403 128.173 50.2676 127.965 50.0449C127.756 49.8221 127.597 49.5535 127.486 49.2389C127.375 48.9247 127.32 48.5752 127.32 48.1904Z" fill="#231F20"></path><path d="M132.404 45.7273H135.636V46.5367H133.253V47.6557H135.215V48.4651H133.253V49.8513H135.636V50.6607L132.404 50.6535V45.7273Z" fill="#231F20"></path><path d="M139.037 46.9234C138.878 47.022 138.686 47.0828 138.46 47.1063V46.3815C138.537 46.3629 138.613 46.3371 138.687 46.3041C138.762 46.2715 138.832 46.2301 138.898 46.1808C138.963 46.1314 139.022 46.0696 139.074 45.9944C139.126 45.9193 139.168 45.8301 139.2 45.7269H139.885V50.6531H139.037V46.9234Z" fill="#231F20"></path><path d="M142.336 45.6359C142.73 45.6359 143.041 45.7121 143.27 45.8647C143.498 46.0172 143.67 46.2085 143.785 46.4381C143.901 46.668 143.974 46.9131 144.006 47.1735C144.038 47.4338 144.054 47.6743 144.054 47.8948C144.054 48.4344 144.003 48.886 143.901 49.2495C143.799 49.613 143.662 49.9029 143.49 50.1185C143.318 50.3344 143.123 50.4881 142.903 50.5795C142.684 50.671 142.454 50.7169 142.214 50.7169C141.906 50.7169 141.644 50.6592 141.427 50.5446C141.21 50.4296 141.029 50.29 140.884 50.1261L141.386 49.5068C141.422 49.5443 141.464 49.5865 141.512 49.6335C141.559 49.6806 141.614 49.7238 141.678 49.7637C141.741 49.8035 141.815 49.8377 141.898 49.8658C141.982 49.8938 142.078 49.9079 142.187 49.9079C142.368 49.9079 142.52 49.8669 142.642 49.7845C142.764 49.7026 142.863 49.5944 142.94 49.4609C143.017 49.3273 143.075 49.1725 143.113 48.9964C143.152 48.8203 143.176 48.6386 143.185 48.4511C143.08 48.6014 142.931 48.7232 142.737 48.8169C142.542 48.9106 142.323 48.9577 142.078 48.9577C141.861 48.9577 141.664 48.9179 141.487 48.8382C141.311 48.7585 141.162 48.6469 141.039 48.5039C140.917 48.3608 140.822 48.187 140.754 47.9832C140.686 47.7791 140.652 47.5529 140.652 47.304C140.652 47.0551 140.692 46.8278 140.771 46.6213C140.85 46.4149 140.964 46.2388 141.111 46.0935C141.258 45.9482 141.434 45.8355 141.64 45.7558C141.846 45.6761 142.078 45.6362 142.336 45.6362V45.6359ZM143.178 47.2968C143.178 47.0247 143.104 46.8149 142.954 46.6669C142.805 46.5193 142.601 46.4453 142.343 46.4453C142.085 46.4453 141.88 46.5193 141.729 46.6669C141.577 46.8145 141.502 47.0247 141.502 47.2968C141.502 47.5689 141.577 47.7848 141.729 47.9301C141.88 48.0754 142.085 48.1483 142.343 48.1483C142.601 48.1483 142.805 48.0754 142.954 47.9301C143.104 47.7848 143.178 47.5738 143.178 47.2968Z" fill="#231F20"></path><path d="M146.83 49.7246H144.719V49.084L146.993 45.7273H147.679V48.9152H148.012V49.7246H147.679V50.6535H146.83V49.7246ZM146.83 48.9152V47.3742L145.791 48.9152H146.83Z" fill="#231F20"></path><path d="M150.789 49.7246H148.677V49.084L150.951 45.7273H151.637V48.9152H151.97V49.7246H151.637V50.6535H150.789V49.7246ZM150.789 48.9152V47.3742L149.75 48.9152H150.789Z" fill="#231F20"></path><path d="M0.00210571 62.7413C0.00210571 61.8204 0.134619 60.9833 0.400378 60.2304C0.665771 59.4779 1.04794 58.8347 1.54651 58.3008C2.04471 57.7673 2.64652 57.3544 3.35118 57.0623C4.05548 56.7701 4.85202 56.624 5.74081 56.624C6.75955 56.624 7.65091 56.8122 8.41487 57.1886C9.17884 57.565 9.82091 58.0902 10.3414 58.7642L8.68319 59.9439C8.33617 59.5056 7.92179 59.166 7.43969 58.9243C6.95723 58.6829 6.3913 58.5619 5.74081 58.5619C5.15548 58.5619 4.63239 58.6606 4.17188 58.8567C3.71101 59.0533 3.32372 59.3315 3.00965 59.6908C2.6952 60.0505 2.45397 60.4888 2.28631 61.0053C2.11829 61.5221 2.03447 62.1008 2.03447 62.7409C2.03447 63.3811 2.11829 63.9602 2.28631 64.4766C2.45433 64.9934 2.6952 65.4317 3.00965 65.7911C3.32372 66.1508 3.71138 66.4289 4.17188 66.6251C4.63239 66.8217 5.15548 66.92 5.74081 66.92C6.2284 66.92 6.6728 66.8555 7.074 66.7261C7.47483 66.5971 7.82698 66.4141 8.13081 66.1785V64.1563H5.74118V62.2184H10.1632V66.937C9.71877 67.51 9.12539 67.9734 8.38303 68.3274C7.64066 68.6814 6.75992 68.8583 5.74118 68.8583C4.85239 68.8583 4.05584 68.7122 3.35155 68.42C2.64688 68.1278 2.04545 67.715 1.54687 67.1814C1.0483 66.6479 0.666137 66.0047 0.400744 65.2518C0.134985 64.4998 0.00210571 63.6627 0.00210571 62.7413Z" fill="#231F20"></path><path d="M12.0968 62.7413C12.0968 61.8204 12.2293 60.9833 12.495 60.2304C12.7604 59.4779 13.1426 58.8347 13.6412 58.3008C14.1394 57.7673 14.7412 57.3544 15.4458 57.0623C16.1501 56.7701 16.9467 56.624 17.8355 56.624C18.7243 56.624 19.5234 56.7701 20.2335 57.0623C20.9433 57.3544 21.5477 57.7673 22.0463 58.3008C22.5445 58.8347 22.9266 59.4779 23.1924 60.2304C23.4578 60.9833 23.5907 61.8204 23.5907 62.7413C23.5907 63.6623 23.4578 64.4998 23.1924 65.2522C22.9266 66.0051 22.5448 66.6509 22.0463 67.1902C21.5477 67.7294 20.9433 68.1453 20.2335 68.4371C19.5237 68.7293 18.7243 68.8753 17.8355 68.8753C16.9467 68.8753 16.1501 68.7293 15.4458 68.4371C14.7412 68.1449 14.1397 67.7294 13.6412 67.1902C13.1426 66.6509 12.7604 66.0051 12.495 65.2522C12.2293 64.4998 12.0968 63.6627 12.0968 62.7413ZM14.1288 62.7413C14.1288 63.3819 14.2126 63.9632 14.3806 64.4853C14.5486 65.0079 14.7895 65.4488 15.1039 65.8081C15.418 66.1679 15.8057 66.446 16.2662 66.6422C16.7267 66.8388 17.2498 66.937 17.8351 66.937C18.4204 66.937 18.9432 66.8388 19.404 66.6422C19.8645 66.4456 20.2548 66.1679 20.5747 65.8081C20.8943 65.4488 21.1381 65.0075 21.3064 64.4853C21.4745 63.9628 21.5583 63.3815 21.5583 62.7413C21.5583 62.1012 21.4741 61.5225 21.3064 61.0057C21.1384 60.4892 20.8943 60.0509 20.5747 59.6912C20.2548 59.3318 19.8649 59.0537 19.404 58.8571C18.9432 58.6606 18.4204 58.5623 17.8351 58.5623C17.2498 58.5623 16.7267 58.6609 16.2662 58.8571C15.8053 59.0537 15.418 59.3318 15.1039 59.6912C14.7895 60.0509 14.5483 60.4892 14.3806 61.0057C14.2126 61.5225 14.1288 62.1012 14.1288 62.7413Z" fill="#231F20"></path><path d="M25.5083 56.58H27.5403V66.9162H33.0352V68.8541H25.5083V56.58Z" fill="#231F20"></path><path d="M34.8723 56.6118H39.1804C40.0256 56.6118 40.787 56.7526 41.4646 57.0331C42.1418 57.3139 42.7165 57.707 43.1876 58.2128C43.6591 58.7182 44.0223 59.3307 44.2767 60.0498C44.5311 60.7689 44.6588 61.8223 44.6588 62.6984C44.6588 63.5746 44.5315 64.6379 44.2767 65.3737C44.0219 66.1095 43.6588 66.7359 43.1876 67.2528C42.7162 67.7696 42.1418 68.1684 41.4646 68.4492C40.787 68.73 40.026 68.8704 39.1804 68.8704H34.8723V56.6122V56.6118ZM38.9853 66.9321C39.5596 66.9321 40.0718 66.8395 40.5216 66.654C40.9712 66.4684 41.3508 66.202 41.6597 65.8533C41.9687 65.5053 42.207 65.0894 42.375 64.6064C42.543 64.1233 42.6268 63.3834 42.6268 62.799C42.6268 62.2146 42.5427 61.3863 42.375 60.8918C42.207 60.3978 41.9687 59.9762 41.6597 59.6278C41.3508 59.2799 40.9715 59.0127 40.5216 58.8272C40.0718 58.642 39.5596 58.549 38.9853 58.549H36.9046V66.9314H38.9853V66.9321Z" fill="#231F20"></path><path d="M58.2329 67.8421C57.3551 68.516 56.3525 68.8533 55.2254 68.8533C54.7268 68.8533 54.2473 68.7801 53.7868 68.6344C53.3259 68.4887 52.9196 68.272 52.5674 67.9855C52.2153 67.699 51.936 67.3423 51.7302 66.9154C51.5241 66.4885 51.4213 65.9888 51.4213 65.4158C51.4213 64.9889 51.478 64.6041 51.5919 64.2614C51.7057 63.9188 51.8602 63.6099 52.0553 63.3344C52.2504 63.0593 52.4722 62.8066 52.7219 62.5762C52.9712 62.3463 53.2311 62.1353 53.5023 61.9444C53.2205 61.5513 52.9902 61.1498 52.8116 60.7396C52.6326 60.3298 52.5433 59.8718 52.5433 59.3664C52.5433 58.9956 52.5974 58.6389 52.7058 58.2963C52.8141 57.9536 52.9792 57.6531 53.2014 57.3947C53.4233 57.1362 53.7026 56.9313 54.0386 56.7796C54.3743 56.6278 54.7704 56.5519 55.2254 56.5519C55.6156 56.5519 55.9813 56.6107 56.3228 56.7287C56.6643 56.8467 56.9649 57.0235 57.2251 57.2596C57.4854 57.4956 57.6886 57.7878 57.8346 58.1358C57.9811 58.4841 58.0543 58.8829 58.0543 59.3322C58.0543 59.6919 58.0081 60.0206 57.9159 60.3181C57.8237 60.6159 57.6966 60.8884 57.5337 61.1354C57.3712 61.3828 57.1816 61.6071 56.9649 61.8093C56.7478 62.0116 56.5205 62.2028 56.2822 62.3823L58.2655 64.8765C58.5796 64.2926 58.8398 63.5902 59.0459 62.7701L60.8667 63.2756C60.7148 63.9047 60.5277 64.4834 60.3059 65.0113C60.0837 65.5395 59.8264 66.0168 59.5335 66.4437L61.2243 68.5672H58.8182L58.2329 67.8424V67.8421ZM54.7865 63.5617C54.7645 63.5393 54.7513 63.5226 54.7458 63.5112C54.7403 63.5002 54.7268 63.4832 54.7052 63.4608C54.3256 63.7306 54.0086 64.0171 53.7542 64.3203C53.4994 64.6234 53.372 64.9889 53.372 65.4158C53.372 65.8427 53.521 66.1853 53.819 66.4775C54.1169 66.7697 54.591 66.9158 55.2415 66.9158C55.5771 66.9158 55.8942 66.871 56.1925 66.7811C56.4905 66.6911 56.7749 66.5511 57.0458 66.3599L54.7861 63.5625L54.7865 63.5617ZM55.0789 60.8652C55.3824 60.6406 55.6288 60.4076 55.8187 60.1659C56.0084 59.9245 56.1032 59.6464 56.1032 59.3318C56.1032 59.051 56.03 58.8404 55.8835 58.7C55.7371 58.5596 55.5446 58.4894 55.3063 58.4894C55.068 58.4894 54.8593 58.568 54.7129 58.7254C54.5665 58.8829 54.4932 59.1076 54.4932 59.3994C54.4932 59.6578 54.5474 59.9048 54.6558 60.1408C54.7641 60.3769 54.9051 60.6186 55.0786 60.8656L55.0789 60.8652Z" fill="#231F20"></path><path d="M68.2308 56.58H72.5386C73.3838 56.58 74.1452 56.7208 74.8228 57.0012C75.5 57.282 76.0747 57.6751 76.5462 58.1809C77.0177 58.6864 77.3804 59.2988 77.6352 60.0179C77.8896 60.737 78.0174 61.6845 78.0174 62.5611C78.0174 63.4376 77.89 64.6261 77.6352 65.3615C77.3804 66.0973 77.0177 66.7238 76.5462 67.2406C76.0747 67.7575 75.5004 68.1563 74.8228 68.4371C74.1452 68.7179 73.3842 68.8583 72.5386 68.8583H68.2308V56.58ZM72.3438 66.92C72.9182 66.92 73.4303 66.8274 73.8802 66.6418C74.3297 66.4563 74.7093 66.1899 75.0183 65.8412C75.3272 65.4932 75.5655 65.0773 75.7335 64.5942C75.9016 64.1112 75.9854 63.2456 75.9854 62.6616C75.9854 62.0776 75.9012 61.3548 75.7335 60.8599C75.5655 60.3659 75.3272 59.9443 75.0183 59.5959C74.7093 59.248 74.3301 58.9808 73.8802 58.7953C73.4303 58.6101 72.9182 58.5171 72.3438 58.5171H70.2632V66.9192H72.3438V66.92Z" fill="#231F20"></path><path d="M79.935 56.58H81.967V68.8499H79.935V56.58Z" fill="#231F20"></path><path d="M87.5428 56.58H89.6725L93.574 68.8583H91.4442L90.5013 65.7406H86.7137L85.7707 68.8583H83.641L87.5424 56.58H87.5428ZM89.8998 63.8027L88.5992 59.0404L87.2986 63.8027H89.8998Z" fill="#231F20"></path><path d="M95.0044 56.58H97.3614L100.678 66.0377L103.978 56.58H106.335V68.8522H104.303V61.6227L101.67 68.7847L101.686 68.8522H99.6537L99.6698 68.7847L97.0364 61.6227V68.8522H95.0044V56.58Z" fill="#231F20"></path><path d="M108.253 62.7413C108.253 61.8204 108.386 60.9833 108.652 60.2304C108.917 59.4779 109.299 58.8347 109.798 58.3008C110.296 57.7673 110.898 57.3544 111.602 57.0623C112.306 56.7701 113.103 56.624 113.992 56.624C114.881 56.624 115.68 56.7701 116.389 57.0623C117.099 57.3544 117.704 57.7673 118.202 58.3008C118.701 58.8347 119.083 59.4779 119.348 60.2304C119.614 60.9833 119.747 61.8204 119.747 62.7413C119.747 63.6623 119.614 64.4998 119.348 65.2522C119.083 66.0051 118.701 66.6509 118.202 67.1902C117.704 67.7294 117.099 68.1453 116.389 68.4371C115.68 68.7293 114.88 68.8753 113.992 68.8753C113.103 68.8753 112.306 68.7293 111.602 68.4371C110.897 68.1449 110.296 67.7294 109.798 67.1902C109.299 66.6509 108.917 66.0051 108.652 65.2522C108.386 64.4998 108.253 63.6627 108.253 62.7413ZM110.285 62.7413C110.285 63.3819 110.369 63.9632 110.537 64.4853C110.705 65.0079 110.946 65.4488 111.261 65.8081C111.575 66.1679 111.962 66.446 112.423 66.6422C112.883 66.8388 113.406 66.937 113.992 66.937C114.577 66.937 115.1 66.8388 115.56 66.6422C116.021 66.4456 116.411 66.1679 116.731 65.8081C117.051 65.4488 117.294 65.0075 117.462 64.4853C117.63 63.9628 117.714 63.3815 117.714 62.7413C117.714 62.1012 117.63 61.5225 117.462 61.0057C117.294 60.4892 117.051 60.0509 116.731 59.6912C116.411 59.3318 116.021 59.0537 115.56 58.8571C115.099 58.6606 114.577 58.5623 113.992 58.5623C113.407 58.5623 112.883 58.6609 112.423 58.8571C111.962 59.0537 111.575 59.3318 111.261 59.6912C110.946 60.0509 110.705 60.4892 110.537 61.0057C110.369 61.5225 110.285 62.1012 110.285 62.7413Z" fill="#231F20"></path><path d="M123.697 60.3211V68.8704H121.665V56.58H123.859L128.2 65.1293V56.58H130.232V68.8704H128.038L123.697 60.3211H123.697Z" fill="#231F20"></path><path d="M132.313 56.58H136.621C137.466 56.58 138.228 56.7208 138.905 57.0012C139.582 57.282 140.157 57.6751 140.629 58.1809C141.1 58.6864 141.463 59.2988 141.718 60.0179C141.972 60.737 142.1 61.6929 142.1 62.569C142.1 63.4452 141.972 64.6341 141.718 65.3695C141.463 66.1053 141.1 66.7318 140.629 67.2486C140.157 67.7654 139.583 68.1642 138.905 68.445C138.228 68.7259 137.467 68.8663 136.621 68.8663H132.313V56.58ZM136.426 66.9283C137 66.9283 137.512 66.8357 137.962 66.6502C138.412 66.4646 138.791 66.1982 139.1 65.8495C139.409 65.5015 139.648 65.0857 139.816 64.6026C139.984 64.1195 140.067 63.254 140.067 62.67C140.067 62.086 139.983 61.3548 139.816 60.8603C139.648 60.3663 139.409 59.9447 139.1 59.5963C138.791 59.2484 138.412 58.9812 137.962 58.7957C137.512 58.6105 137 58.5175 136.426 58.5175H134.345V66.928H136.426V66.9283Z" fill="#231F20"></path><path d="M152 65.2184C152 65.7239 151.918 66.1986 151.756 66.6426C151.593 67.0865 151.347 67.4683 151.016 67.7886C150.686 68.1088 150.268 68.3615 149.764 68.5467C149.26 68.7323 148.661 68.8249 147.968 68.8249C147.458 68.8249 146.987 68.7771 146.554 68.6814C146.12 68.5862 145.721 68.4568 145.359 68.294C144.996 68.1312 144.668 67.946 144.375 67.7381C144.083 67.5301 143.828 67.3195 143.611 67.1063L144.895 65.6571C145.34 66.0506 145.806 66.3538 146.293 66.5671C146.781 66.7807 147.334 66.8873 147.951 66.8873C148.342 66.8873 148.667 66.8426 148.927 66.7526C149.187 66.6627 149.396 66.5477 149.553 66.4073C149.71 66.2669 149.818 66.1041 149.878 65.9186C149.937 65.733 149.967 65.5509 149.967 65.371C149.967 65.023 149.878 64.7365 149.699 64.5115C149.52 64.2869 149.282 64.0986 148.984 63.9469C148.685 63.7951 148.347 63.6661 147.968 63.5594C147.588 63.4528 147.201 63.3431 146.805 63.2308C146.41 63.1185 146.022 62.9864 145.643 62.8347C145.264 62.6829 144.925 62.4893 144.627 62.2533C144.329 62.0173 144.091 61.7224 143.912 61.3688C143.733 61.0147 143.643 60.5742 143.643 60.046C143.643 59.5519 143.73 59.0966 143.904 58.681C144.077 58.2655 144.329 57.9088 144.66 57.611C144.99 57.3135 145.402 57.0801 145.895 56.9116C146.388 56.7431 146.954 56.6589 147.594 56.6589C148.472 56.6589 149.266 56.808 149.975 57.1055C150.685 57.4034 151.3 57.7825 151.821 58.2431L150.634 59.7766C150.114 59.3497 149.607 59.0465 149.114 58.8666C148.621 58.6871 148.119 58.5968 147.61 58.5968C146.928 58.5968 146.434 58.7205 146.131 58.9675C145.828 59.2149 145.676 59.5181 145.676 59.8775C145.676 60.1697 145.765 60.4114 145.944 60.6023C146.123 60.7935 146.361 60.9537 146.66 61.0827C146.958 61.2121 147.296 61.3244 147.676 61.4196C148.055 61.5153 148.442 61.6219 148.838 61.7399C149.233 61.8579 149.621 61.9983 150 62.1611C150.38 62.3243 150.718 62.5375 151.016 62.8016C151.314 63.0658 151.553 63.3944 151.732 63.7875C151.91 64.181 152 64.6584 152 65.22L152 65.2184Z" fill="#231F20"></path><path d="M94.8989 48.4742H0V49.1569H94.8989V48.4742Z" fill="url(#paint0_linear_2407_2185)"></path><path d="M32.8602 14.7452C34.0898 14.4781 35.4482 13.7233 36.0603 12.9223C36.9062 11.8298 37.1808 10.4724 37.373 8.9747C35.9904 8.59638 34.8285 8.4981 33.3884 8.51783C31.3344 8.43814 29.2992 8.85631 27.437 9.77158C25.9973 10.5081 24.73 11.6025 23.7508 12.9162C23.6355 13.0756 23.5396 13.2547 23.4243 13.4137C23.3284 13.2543 23.2131 13.0752 23.0978 12.9162C22.1185 11.5828 20.8516 10.5081 19.4115 9.77158C17.5494 8.87604 15.5141 8.43814 13.4598 8.51783C11.3286 8.45825 9.2168 8.87604 7.27779 9.77158C5.68433 10.5081 4.26366 11.5828 3.09263 12.9162C2.03655 14.1104 1.23049 15.5432 0.731188 17.0755C0.27032 18.4488 0.0206678 19.882 0.00163269 21.3149V39.4058H7.0285V21.494C7.00947 20.5389 7.18225 19.5834 7.54684 18.7076C7.8924 17.971 8.3723 17.3146 8.96751 16.7772C9.56273 16.2399 10.2538 15.8217 11.0024 15.5831C12.6153 15.1053 14.3237 15.1053 15.9175 15.5831C16.6661 15.8217 17.3766 16.2399 17.9718 16.7772C18.567 17.3146 19.0469 17.9714 19.3735 18.7076C19.7575 19.5834 19.9303 20.5385 19.8918 21.494V39.4058H26.9187V21.494C26.8996 20.5389 27.0724 19.5834 27.4561 18.7076C27.8016 17.971 28.2815 17.3146 28.8771 16.7772C29.8559 15.9014 31.5991 15.0192 32.8605 14.7452H32.8602Z" fill="#E92548"></path><path d="M39.9139 22.5432L39.5932 23.8527C39.5742 23.9309 39.5365 23.9897 39.4801 24.0482C39.4234 24.0872 39.348 24.1263 39.2726 24.1263C39.1972 24.1263 39.1221 24.1066 39.0654 24.0482C39.0086 24.0091 38.9709 23.9309 38.9523 23.8527L38.6316 22.5432C38.3486 21.3509 37.7454 20.2565 36.9159 19.3967C36.0864 18.5368 35.0303 17.9115 33.8805 17.6181L32.6173 17.2857C32.5419 17.266 32.4851 17.2269 32.4287 17.1685C32.391 17.11 32.3533 17.0315 32.3533 16.9533C32.3533 16.8751 32.3724 16.797 32.4287 16.7382C32.4664 16.6793 32.5419 16.6403 32.6173 16.6209L33.8805 16.2885C35.0303 15.9952 36.0864 15.3698 36.9159 14.5099C37.7454 13.6501 38.3486 12.5553 38.6316 11.3634L38.9523 10.093C38.9713 10.0148 39.009 9.956 39.0654 9.89756C39.1221 9.85848 39.1972 9.81939 39.2726 9.81939C39.348 9.81939 39.4234 9.83913 39.4801 9.89756C39.5369 9.93665 39.5746 10.0148 39.5932 10.093L39.9139 11.4025C40.1965 12.5948 40.8001 13.6892 41.6296 14.549C42.4591 15.4089 43.5152 16.0343 44.665 16.3276L45.9283 16.66C46.0037 16.6793 46.0604 16.7184 46.1168 16.7772C46.1541 16.8361 46.1918 16.9142 46.1918 16.9924C46.1918 17.0706 46.1728 17.1487 46.1168 17.2076C46.0791 17.2664 46.0037 17.3055 45.9283 17.3248L44.665 17.6572C43.5152 17.9505 42.4782 18.5562 41.6296 19.4164C40.8188 20.2763 40.2155 21.3513 39.9139 22.5436V22.5432Z" fill="#E92548"></path><path d="M62.5514 39.4054C60.5739 39.4453 58.6155 39.0472 56.8109 38.2116C55.3327 37.5153 54.027 36.52 52.9325 35.286C51.9727 34.1715 51.2237 32.8779 50.7438 31.4648C50.302 30.1913 50.0721 28.8776 50.0527 27.5244V10.787H56.5608V27.4447C56.5418 28.3403 56.6952 29.2161 57.0411 30.0319C57.3482 30.7282 57.7897 31.3255 58.3465 31.823C58.9032 32.3204 59.5369 32.6787 60.247 32.8976C61.7446 33.3552 63.3381 33.3552 64.8356 32.8976C65.5458 32.6787 66.1794 32.3204 66.7362 31.823C67.293 31.3054 67.7344 30.6686 68.0415 29.9719C68.3871 29.1561 68.5603 28.2803 68.5408 27.3848V10.7866H75.049V27.5441C75.03 28.8776 74.7803 30.211 74.3579 31.4648C73.878 32.898 73.1294 34.1912 72.1692 35.3258C71.0747 36.5598 69.7499 37.5548 68.2908 38.2515C66.4668 39.0476 64.5087 39.4453 62.5507 39.4054H62.5514Z" fill="#E92548"></path><path d="M78.2569 1.90735e-06H84.7654V39.3857H78.2569V1.90735e-06Z" fill="#E92548"></path><path d="M87.6829 5.08101C87.6829 4.60327 87.7598 4.10579 87.9516 3.66789C88.1438 3.22998 88.3931 2.8122 88.7196 2.47371C89.3913 1.75729 90.3131 1.35923 91.2729 1.35923C92.2327 1.35923 93.1544 1.75729 93.8261 2.45398C94.1526 2.79246 94.4213 3.21025 94.5941 3.64815C94.7669 4.10579 94.8628 4.58353 94.8628 5.06128C94.8818 5.55876 94.7859 6.05623 94.6131 6.51425C94.4404 6.97188 94.1717 7.40978 93.8261 7.74826C93.135 8.42485 92.2327 8.8229 91.2729 8.8229C90.3131 8.8229 89.4107 8.44458 88.7196 7.74826C88.374 7.39005 88.1054 6.97226 87.9326 6.51425C87.7598 6.07634 87.6639 5.57887 87.6829 5.08139V5.08101ZM88.0094 10.7832H94.537V39.402H88.0094V10.7829V10.7832Z" fill="#E92548"></path><path d="M97.7809 10.7813H104.577L111.047 29.4889L117.556 10.7813H124.333L114.734 38.1464C114.196 39.7982 113.582 41.45 113.083 43.1022C112.545 44.6944 111.815 46.1868 110.894 47.5802C109.992 48.9137 108.821 50.008 107.457 50.8041C105.73 51.6799 103.81 52.0977 101.89 51.9983V45.829C102.792 45.829 103.656 45.5505 104.424 45.053C105.211 44.5153 105.883 43.819 106.402 43.0031C106.92 42.1873 107.266 41.2716 107.419 40.2964C107.573 39.3212 107.496 38.3262 107.17 37.3909L97.7817 10.7821L97.7809 10.7813Z" fill="#E92548"></path><path d="M138.188 10.7901C140.12 10.7703 142.033 11.1073 143.831 11.8211C145.476 12.4555 146.968 13.4471 148.211 14.7357C149.454 16.0244 150.411 17.5711 151.022 19.2764C151.692 21.1403 152.017 23.1428 151.998 25.1255L151.979 39.4013H145.571V36.2684C144.767 37.2398 143.754 37.9935 142.606 38.4693C141.038 39.1432 139.354 39.4608 137.652 39.4013C135.816 39.421 134.018 39.0639 132.315 38.3703C130.728 37.7161 129.293 36.7245 128.107 35.4556C126.903 34.1472 125.965 32.6005 125.353 30.9149C124.684 29.051 124.359 27.0486 124.378 25.0659C124.359 23.0634 124.684 21.0804 125.372 19.2168C125.984 17.5316 126.96 16.0047 128.184 14.7357C129.427 13.4865 130.919 12.4954 132.526 11.8609C134.324 11.1274 136.255 10.7703 138.187 10.7901H138.188ZM145.571 25.0659C145.705 22.865 144.978 20.6838 143.582 19.0184C142.109 17.6303 140.197 16.8573 138.207 16.8573C136.218 16.8573 134.305 17.6307 132.832 18.9986C132.125 19.8114 131.57 20.7631 131.226 21.8142C130.881 22.8453 130.728 23.9556 130.786 25.0461C130.728 26.1367 130.862 27.247 131.226 28.278C131.57 29.309 132.125 30.2607 132.832 31.0739C134.305 32.4616 136.218 33.2354 138.207 33.2354C140.197 33.2354 142.109 32.462 143.582 31.094C144.978 29.4483 145.705 27.2671 145.571 25.0663V25.0659Z" fill="#E92548"></path><path d="M39.8183 32.2089C39.8231 34.5016 39.8183 39.41 39.8183 39.41H46.8225V21.3653C46.8188 20.7293 46.8181 19.9704 46.8276 19.0578C40.7159 18.6484 39.8099 28.1877 39.8183 32.2085V32.2089Z" fill="#E92548"></path><defs><linearGradient id="paint0_linear_2407_2185" x1="5.1186" y1="48.8154" x2="79.7053" y2="48.8154" gradientUnits="userSpaceOnUse"><stop stop-color="#E5BA5D"></stop><stop offset="0.23" stop-color="#FCF9D2"></stop><stop offset="0.41" stop-color="#E2B854"></stop><stop offset="0.59" stop-color="#F4C96E"></stop><stop offset="0.77" stop-color="#D0A02B"></stop><stop offset="1" stop-color="#C19639"></stop></linearGradient></defs></svg>